<?xml version="1.0" standalone="no"?>
<!DOCTYPE svg PUBLIC "-//W3C//DTD SVG 20010904//EN"
 "http://www.w3.org/TR/2001/REC-SVG-20010904/DTD/svg10.dtd">
<svg version="1.0" xmlns="http://www.w3.org/2000/svg"
 width="720.000000pt" height="720.000000pt" viewBox="0 0 720.000000 720.000000"
 preserveAspectRatio="xMidYMid meet">
<metadata>
Created by potrace 1.14, written by Peter Selinger 2001-2017
</metadata>
<g transform="translate(0.000000,720.000000) scale(0.100000,-0.100000)"
fill="#000000" stroke="none">
<path d="M4662 6223 c-26 -50 -37 -152 -36 -343 0 -182 8 -230 60 -357 19 -45
34 -84 34 -86 0 -3 -21 -18 -47 -33 -68 -39 -130 -92 -169 -143 -46 -59 -45
-74 4 -66 52 10 175 13 197 5 13 -5 2 -16 -51 -47 -128 -77 -232 -180 -307
-308 l-42 -70 -580 0 c-319 0 -596 -4 -617 -8 -47 -10 -65 -51 -44 -102 13
-30 19 -34 67 -40 28 -4 224 -9 433 -10 535 -4 605 -6 611 -15 6 -10 -114
-163 -159 -202 -17 -15 -65 -42 -108 -59 -153 -62 -307 -189 -405 -336 -30
-45 -69 -94 -86 -108 -18 -14 -36 -29 -42 -33 -17 -13 -177 -60 -228 -67 -27
-4 -56 -8 -65 -10 -10 -1 -48 -6 -87 -9 -38 -4 -88 -9 -110 -11 -126 -13 -175
-17 -220 -21 -146 -10 -238 -21 -330 -40 -38 -8 -83 -17 -100 -20 -56 -11
-228 -77 -284 -108 -112 -64 -94 -51 -208 -148 -50 -43 -140 -84 -165 -76 -27
9 149 172 252 232 185 110 436 197 605 211 39 3 81 7 95 9 14 3 77 7 140 11
63 3 133 7 155 10 22 3 69 7 105 10 36 3 76 7 90 9 14 2 48 7 75 11 96 12 164
36 190 67 32 38 31 54 -2 71 -23 12 -83 14 -303 11 -281 -3 -412 -8 -465 -19
-16 -3 -41 -8 -55 -10 -14 -3 -38 -8 -55 -11 -39 -7 -195 -50 -232 -65 -15 -6
-35 -12 -43 -14 -8 -2 -64 -22 -125 -45 -111 -43 -217 -76 -267 -85 -16 -3
-43 -8 -60 -11 -48 -9 -288 -11 -288 -3 0 4 -9 5 -19 2 -33 -8 -128 17 -202
54 -178 89 -270 259 -264 488 4 147 34 250 104 354 21 31 41 62 45 69 12 20
-89 7 -246 -32 -345 -86 -537 -215 -665 -446 -27 -48 -62 -143 -69 -188 -10
-64 -12 -311 -2 -354 11 -53 56 -165 78 -198 9 -14 30 -45 46 -70 16 -25 42
-59 58 -77 69 -78 67 -95 -8 -44 -74 52 -156 157 -206 266 -32 70 -44 49 -36
-65 3 -54 8 -104 11 -111 2 -8 7 -27 9 -44 23 -131 151 -317 279 -404 56 -38
157 -85 207 -97 19 -4 37 -9 40 -9 3 -1 24 -5 48 -10 76 -14 53 -22 -59 -20
-61 1 -112 -2 -114 -5 -4 -6 120 -68 168 -84 24 -8 96 -17 172 -21 33 -2 67
-4 75 -4 10 -1 7 -9 -12 -26 -15 -14 -31 -25 -36 -25 -6 0 -12 -7 -16 -15 -3
-8 -12 -15 -19 -15 -8 0 -20 -7 -27 -15 -11 -13 -8 -15 16 -16 37 -1 102 2
123 6 9 1 36 6 61 10 25 3 53 9 63 12 16 4 18 0 12 -33 -30 -193 -96 -349
-184 -434 -53 -52 -84 -68 -201 -106 -143 -45 -165 -59 -201 -122 -39 -69 -52
-85 -193 -236 -61 -65 -116 -123 -121 -130 -142 -154 -127 -356 30 -415 74
-28 181 -19 239 21 64 44 166 159 166 187 0 5 3 11 8 13 4 2 25 32 46 68 145
240 245 300 688 414 97 25 188 50 202 56 14 5 26 7 26 5 0 -2 12 0 27 6 16 6
35 12 43 14 8 2 63 20 122 39 59 20 111 36 117 36 16 0 -13 -64 -50 -111 -34
-43 -86 -73 -206 -119 -105 -41 -115 -49 -166 -138 -26 -44 -75 -115 -109
-157 -151 -186 -175 -226 -179 -297 -5 -72 41 -158 105 -198 76 -46 224 -13
297 67 34 38 79 100 79 109 0 22 117 191 169 244 56 57 188 150 212 150 4 0
36 13 71 29 35 16 92 41 128 56 268 111 430 225 564 395 84 106 110 147 182
287 30 57 43 73 60 73 21 0 57 -14 182 -71 94 -43 197 -76 291 -93 116 -22
130 -21 124 6 -3 13 -9 28 -13 33 -12 17 -52 144 -48 155 2 6 26 -11 53 -36
126 -117 258 -192 372 -210 l33 -5 -15 42 c-18 49 -14 57 17 37 29 -19 211
-93 261 -106 37 -10 38 -10 63 29 28 45 31 45 124 -1 58 -30 124 -54 202 -74
43 -12 229 -14 268 -3 8 2 29 7 45 12 55 15 143 64 205 116 34 28 63 49 65 47
2 -2 -7 -28 -21 -58 -13 -29 -21 -57 -17 -61 8 -8 142 36 203 67 39 19 140 86
162 106 7 7 24 22 37 33 l24 20 -7 -48 -7 -49 48 28 c95 55 160 104 234 175
28 27 55 49 60 49 4 0 32 -37 62 -82 48 -74 120 -149 134 -140 3 2 9 0 12 -5
3 -5 31 -17 61 -26 30 -9 82 -26 114 -37 56 -20 135 -27 181 -16 78 19 135 48
169 85 13 14 23 18 35 12 33 -18 156 -35 251 -35 91 1 158 30 214 95 58 68 60
156 6 242 -31 49 -57 70 -295 234 -363 251 -466 307 -580 319 -85 9 -168 25
-195 38 -14 8 -42 16 -62 20 -48 9 -52 16 -37 68 7 24 13 48 15 53 1 6 7 28
13 51 16 61 24 139 23 239 -1 134 -9 175 -63 339 -27 83 -47 156 -44 163 11
29 172 8 195 -26 19 -27 120 -93 162 -106 141 -42 257 14 238 113 -17 87 -84
223 -147 299 -24 28 -39 54 -34 58 6 3 42 8 80 11 85 5 142 25 197 67 43 33
108 122 141 192 10 22 21 42 24 45 3 3 7 29 8 58 4 74 -20 108 -106 154 -18
10 -36 18 -40 18 -12 0 -46 10 -68 20 -11 5 -87 30 -170 56 -82 25 -153 49
-157 53 -3 3 -9 21 -11 39 -22 139 -103 244 -265 344 -49 30 -52 33 -97 108
-102 171 -216 296 -389 426 -54 41 -106 74 -115 72 -14 -3 -16 -27 -17 -206
-1 -111 -4 -206 -8 -209 -3 -4 -23 13 -43 38 -52 61 -206 213 -251 246 -20 15
-39 31 -42 34 -11 13 -208 139 -265 168 -69 36 -81 38 -93 14z m291 -496 l28
-29 -2 -138 c-2 -148 -7 -200 -18 -200 -19 0 -78 139 -87 205 -3 17 -7 37 -10
45 -6 16 -17 114 -17 145 1 60 0 59 41 29 20 -16 50 -42 65 -57z m766 -189
c102 -24 255 -115 325 -192 35 -40 65 -95 77 -142 28 -110 43 -138 84 -157 21
-11 46 -20 54 -22 21 -5 129 -37 221 -67 l74 -24 -34 -21 c-35 -22 -68 -68
-64 -90 1 -7 2 -17 3 -21 0 -5 21 -29 45 -55 67 -70 72 -82 41 -111 -40 -37
-142 -49 -265 -32 -25 4 -63 9 -85 12 -73 10 -99 15 -200 34 -158 31 -217 41
-303 54 -54 7 -98 -10 -113 -45 -11 -28 -10 -36 10 -73 36 -67 123 -124 301
-194 116 -46 170 -83 170 -116 0 -10 -42 -6 -165 14 -266 45 -296 38 -219 -56
39 -48 49 -52 76 -28 23 21 25 13 31 -86 4 -58 12 -90 35 -135 43 -87 82 -206
91 -281 4 -35 5 -66 3 -69 -2 -2 -18 9 -35 25 -17 16 -33 28 -35 26 -2 -2 4
-32 13 -66 18 -70 29 -236 16 -244 -4 -3 -30 28 -57 69 -27 41 -53 75 -57 75
-4 0 -5 -21 -1 -47 4 -27 7 -88 9 -137 1 -74 -1 -92 -16 -107 -20 -20 -81 -29
-234 -34 -102 -3 -131 -6 -193 -20 -43 -10 -60 11 -123 160 -13 30 -53 180
-63 240 -28 154 -71 285 -126 384 -33 60 -156 194 -268 294 -43 38 -46 48 -43
132 8 183 40 262 146 369 62 62 85 78 85 57 0 -4 -9 -20 -20 -34 -26 -33 -64
-117 -83 -183 -23 -79 -11 -304 17 -304 2 0 16 21 31 46 33 56 95 121 156 162
61 41 69 52 76 108 8 67 38 151 69 191 60 78 189 133 299 126 27 -1 81 -13
120 -25 76 -23 88 -25 154 -14 74 12 177 60 208 97 22 27 -4 186 -43 266 -29
61 -101 139 -161 177 -49 30 -168 72 -231 80 -24 3 -47 8 -53 11 -15 10 -10
33 9 38 27 8 190 -2 241 -15z m119 -299 c38 -38 43 -65 10 -54 -71 21 -128 5
-197 -58 -17 -15 -31 -26 -32 -25 -7 20 -2 62 10 89 23 48 74 79 131 79 38 0
52 -5 78 -31z m-31 -125 c9 -25 -25 -48 -43 -29 -8 7 -11 21 -8 29 8 21 43 20
51 0z m-39 -113 c31 -16 18 -32 -25 -29 -24 2 -42 11 -59 31 -24 28 -24 30 -7
47 17 18 19 17 43 -9 14 -15 35 -33 48 -40z m920 -95 c19 -14 -10 -24 -66 -20
-67 4 -72 20 -10 33 35 8 54 5 76 -13z m-2030 -26 c-1 -5 -30 -37 -64 -72 -33
-35 -81 -91 -108 -125 -26 -35 -68 -79 -94 -99 -41 -31 -47 -33 -51 -18 -2 10
2 20 8 22 6 2 11 11 11 19 0 43 159 215 226 245 13 6 24 15 24 19 0 4 8 10 18
12 29 8 34 7 30 -3z m-3868 -339 c0 -5 -4 -11 -8 -13 -15 -6 -159 -231 -202
-315 -45 -90 -64 -111 -56 -66 2 15 5 28 6 28 1 0 3 10 6 23 15 85 95 218 177
295 59 55 77 67 77 48z m5351 -65 c42 -18 136 -106 176 -166 42 -64 104 -191
97 -201 -15 -26 -116 34 -119 71 -1 3 -25 54 -54 113 -58 116 -84 149 -146
185 -31 18 -34 22 -14 18 14 -3 41 -12 60 -20z m-5688 -93 c-3 -16 -20 -50
-36 -78 -69 -115 -129 -254 -144 -335 -9 -48 -10 -213 -1 -280 l8 -55 -22 45
c-98 208 -39 487 145 688 46 49 60 53 50 15z m3959 -184 c197 -55 351 -175
440 -345 63 -122 80 -185 83 -318 1 -94 -4 -140 -25 -214 -45 -152 -157 -297
-301 -388 -56 -35 -165 -80 -214 -89 -75 -14 -258 -13 -320 2 -51 11 -200 75
-215 93 -3 3 -24 17 -47 33 -56 36 -133 120 -172 188 -59 101 -96 220 -104
328 -11 152 52 338 158 474 91 115 267 224 395 244 19 3 37 7 38 8 2 2 51 3
108 3 74 0 126 -5 176 -19z m-2585 -962 c2 -2 -30 -16 -72 -31 -175 -62 -290
-141 -379 -259 -66 -88 -153 -174 -164 -163 -12 12 96 209 144 262 34 37 135
114 149 114 8 0 15 5 15 10 0 6 6 10 13 10 6 0 25 7 40 15 36 19 96 35 156 42
25 3 48 7 49 8 5 4 43 -3 49 -8z m4213 -154 c56 -25 157 -123 320 -313 12 -14
32 -37 46 -52 61 -70 162 -211 171 -242 25 -80 -50 -137 -170 -127 -16 1 -17
6 -11 34 15 67 7 126 -23 171 -12 18 -13 18 -23 -8 -5 -15 -10 -33 -10 -39 0
-24 -40 -76 -68 -91 -34 -18 -76 -13 -112 12 -26 19 -126 161 -157 224 -10 21
-21 38 -25 38 -5 0 -8 5 -8 11 0 6 -14 28 -30 49 -36 46 -65 45 -74 -4 -8 -40
-71 -148 -96 -164 -23 -14 -63 4 -95 44 l-22 27 -42 -62 c-58 -85 -160 -184
-223 -215 -28 -14 -53 -24 -56 -22 -2 3 -11 35 -21 72 -9 37 -21 69 -26 71 -6
1 -41 -26 -80 -62 -78 -73 -97 -81 -210 -89 -44 -3 -118 -13 -165 -22 -130
-26 -310 -27 -310 -2 0 5 24 20 53 32 56 25 143 87 165 117 7 10 19 25 27 32
8 8 59 82 114 165 55 82 123 172 152 201 75 76 179 133 284 157 6 1 30 5 55 8
25 4 52 9 60 11 8 2 35 7 60 10 52 7 67 9 210 30 14 2 57 7 95 10 39 4 71 8
73 10 11 10 135 -5 172 -22z m375 -101 c28 -16 61 -35 75 -43 43 -25 335 -222
340 -229 3 -4 10 -9 16 -11 25 -9 194 -135 200 -149 23 -57 23 -70 -3 -95 -32
-29 -43 -24 -43 17 0 31 -37 98 -53 98 -5 0 -15 7 -23 15 -25 25 -29 18 -27
-50 3 -82 -16 -105 -87 -105 -63 0 -86 19 -106 89 -19 69 -76 148 -244 341
-63 73 -116 136 -118 141 -6 17 23 9 73 -19z m-4885 -221 c0 -4 -27 -21 -60
-37 -33 -15 -60 -31 -60 -35 0 -4 -10 -9 -22 -13 -32 -8 -140 -107 -195 -179
-50 -64 -65 -64 -38 0 52 124 157 216 289 254 71 20 86 22 86 10z m3522 -456
c-36 -26 -153 -78 -159 -71 -3 3 7 10 23 16 43 16 76 32 103 52 13 10 31 18
40 18 11 0 10 -4 -7 -15z m-4312 -409 c0 -2 -16 -14 -36 -27 -70 -43 -104 -93
-153 -222 -75 -200 -202 -385 -276 -399 -33 -7 -36 -2 -20 37 8 18 12 35 9 38
-7 7 -44 -4 -44 -13 0 -13 -61 -23 -72 -12 -18 18 1 79 40 130 20 27 83 98
139 158 56 60 115 127 132 149 117 151 115 150 157 155 61 8 124 11 124 6z
m833 -360 c-8 -105 -10 -122 -23 -166 -16 -58 -64 -153 -106 -211 -75 -103
-196 -106 -196 -5 0 43 23 81 113 188 39 46 91 115 117 153 87 131 103 138 95
41z"/>
<path d="M4168 4135 c-1 -1 -23 -5 -48 -8 -43 -5 -61 -11 -137 -44 l-33 -14
20 -39 c11 -22 22 -40 24 -40 2 0 21 7 42 16 21 9 50 18 64 21 14 3 32 6 40 8
8 2 27 4 43 4 26 1 27 4 27 49 0 40 -3 48 -19 49 -10 1 -21 0 -23 -2z"/>
<path d="M4266 4133 c-9 -9 -7 -81 2 -87 5 -3 31 -8 58 -12 27 -3 71 -15 97
-25 27 -11 52 -17 57 -14 8 5 40 63 40 72 0 4 -66 34 -82 39 -5 1 -10 3 -13 4
-6 3 -10 4 -50 13 -57 12 -102 16 -109 10z"/>
<path d="M3865 4017 c-54 -40 -154 -150 -148 -164 1 -3 16 -15 34 -27 l32 -22
84 83 83 83 -23 35 c-12 19 -24 35 -27 35 -3 -1 -18 -11 -35 -23z"/>
<path d="M4546 4003 l-26 -37 28 -24 c15 -13 34 -29 42 -36 21 -16 77 -82 82
-96 2 -8 18 -2 46 16 l42 27 -27 36 c-35 46 -78 90 -125 125 l-36 27 -26 -38z"/>
<path d="M4466 3883 c-8 -10 -57 -76 -109 -148 -85 -119 -96 -131 -133 -138
-58 -12 -88 -10 -136 11 -23 11 -62 27 -85 36 -41 15 -43 15 -54 -5 -17 -32
-6 -44 63 -68 34 -12 71 -26 80 -31 10 -6 24 -10 33 -10 8 0 21 -15 29 -34 8
-20 28 -42 45 -51 37 -19 35 -19 71 0 39 20 53 48 45 94 -6 36 -1 46 100 186
58 81 104 148 103 149 -2 1 -11 7 -20 15 -14 10 -19 10 -32 -6z"/>
<path d="M4748 3786 c-21 -11 -38 -24 -38 -30 0 -6 9 -33 19 -61 16 -43 29
-103 31 -141 0 -9 51 -12 92 -5 15 2 -19 154 -49 218 l-18 39 -37 -20z"/>
<path d="M3667 3768 c-26 -55 -62 -217 -49 -219 49 -7 83 -6 88 3 4 5 9 27 11
47 3 20 13 61 24 91 11 30 20 59 22 64 2 9 -57 44 -74 46 -4 0 -14 -15 -22
-32z"/>
<path d="M3637 3492 c-21 -3 -27 -8 -23 -20 3 -9 9 -42 15 -72 5 -30 19 -81
31 -112 l21 -58 32 16 c47 24 58 35 48 48 -13 17 -39 105 -46 157 -7 48 -9 49
-78 41z"/>
<path d="M4766 3491 c-3 -5 -8 -24 -11 -42 -9 -64 -16 -92 -30 -120 -23 -43
-18 -57 24 -78 45 -21 38 -27 72 69 11 30 22 71 25 90 3 19 7 45 9 58 3 17 -1
22 -18 23 -12 0 -32 2 -44 5 -12 2 -24 0 -27 -5z"/>
<path d="M3780 3235 c0 -6 -16 -19 -35 -29 l-34 -19 21 -31 c25 -37 108 -119
143 -142 26 -17 45 -12 45 12 0 8 4 14 9 14 5 0 11 9 14 19 3 13 -9 30 -42 57
-25 21 -53 48 -62 59 -46 57 -58 69 -59 60z"/>
<path d="M4654 3203 c-19 -30 -59 -70 -107 -108 l-30 -23 23 -33 c13 -19 25
-36 26 -38 10 -13 90 55 150 128 l45 54 -35 23 c-44 30 -50 30 -72 -3z"/>
<path d="M3971 3012 c-16 -31 -18 -42 -8 -50 22 -17 148 -54 198 -58 l50 -3
-3 46 c-3 43 -5 47 -33 50 -26 3 -139 35 -172 49 -7 3 -21 -12 -32 -34z"/>
<path d="M4420 3028 c-30 -10 -71 -21 -90 -24 -62 -9 -68 -13 -72 -49 -2 -20
-1 -40 2 -45 7 -11 96 -5 132 9 13 5 26 9 31 9 42 5 123 62 87 62 -5 0 -10 8
-10 19 0 34 -21 40 -80 19z"/>
<path d="M2156 5213 c-1 -1 -49 -3 -106 -4 -125 -2 -153 -10 -173 -51 -28 -58
1 -99 75 -104 82 -5 2246 -4 2308 2 84 7 116 47 89 108 -14 31 -25 35 -108 43
-57 5 -2080 11 -2085 6z"/>
<path d="M1040 5192 c-53 -7 -69 -79 -24 -108 21 -15 58 -17 257 -18 128 -1
246 2 262 6 39 10 64 41 58 71 -9 47 -30 51 -288 52 -132 0 -251 -1 -265 -3z"/>
<path d="M1942 4770 c-76 -11 -100 -79 -45 -128 25 -23 30 -23 212 -21 198 3
249 9 267 33 23 32 5 98 -32 115 -27 12 -319 13 -402 1z"/>
<path d="M1656 4472 c-409 -2 -420 -3 -439 -23 -32 -34 -32 -73 0 -109 l29
-32 1054 2 c580 0 1089 2 1130 4 87 3 114 15 128 55 13 36 -15 87 -51 96 -26
7 -1199 11 -1851 7z"/>
<path d="M4096 2063 c-1 -1 -174 -3 -386 -4 -428 -2 -415 0 -426 -71 -5 -27
-1 -40 19 -64 l25 -29 524 1 c732 2 703 1 742 40 19 19 20 63 2 87 -25 33 -33
34 -399 40 -54 1 -100 1 -101 0z"/>
<path d="M3425 1492 c-54 -8 -64 -14 -72 -39 -13 -40 -5 -71 22 -89 27 -17
205 -21 247 -5 48 18 62 72 30 111 -16 20 -28 23 -113 24 -52 1 -103 0 -114
-2z"/>
</g>
</svg>
